<svg version="1" xmlns="http://www.w3.org/2000/svg" width="933.333" height="933.333" viewBox="0 0 700.000000 700.000000"><path d="M346.4 74.2c-1.1.7-5.2 4.7-9 8.8-3.8 4.1-10.1 10.8-14.1 15-3.9 4.1-8 8.5-9.1 9.7-1 1.3-7.5 8.2-14.4 15.5-6.9 7.3-14 14.9-15.8 16.8-6.3 6.9-24.6 26.4-27.5 29.5-6.2 6.6-26.4 28.1-29.5 31.5-1.8 1.9-8 8.6-13.9 14.8-12.4 13.3-17 20.2-20.8 30.9l-2.8 7.8v190l2.2 7c3.8 12 7.9 17.6 30 41.2 2.9 3.2 16.6 17.9 23.7 25.7 1.5 1.7 7.4 8 13.1 14.1 5.6 6 11.4 12.3 13 14 6.7 7.4 21.2 23 23 24.9 1.1 1.2 6.7 7.3 12.5 13.6 5.8 6.2 11.6 12.6 13 14 1.4 1.5 7.4 7.9 13.3 14.3 8.5 9.1 11.6 11.8 14.2 12.3 6.4 1.2 5.1 2.3 38.5-34 3-3.3 6.4-7 7.5-8.1 3-3.2 21.6-23.4 24.4-26.4 1.3-1.4 6.9-7.5 12.5-13.5s10.9-11.8 11.9-13c1-1.2 3.5-3.9 5.6-6.1 26-28.1 47.3-69.9 56.1-110.1 4.8-22.2 5.8-34.7 5.5-67.9-.1-17.1-.5-33-.9-35.5-5.9-44.4-18.2-78.2-41.1-112.4-7.9-11.7-15.8-21-41.5-48.6-1.9-2.1-7.5-8.2-12.5-13.6-12.9-13.9-14.4-15.4-16.5-15.4-2.8 0-3.4 3.1-3.2 18.2.1 18-1 15.9 19.1 37.3 2.6 2.7 8.1 9 12.3 14 30.6 36.3 50.1 82.9 55.5 133 1.5 13.9.8 52.6-1.2 62.6-.3 1.3-.7 4.1-1 6.1-.9 6.9-5.5 25.3-9.1 36.3-9.5 28.8-23.3 54.3-42.2 78-4 4.9-7.8 9.7-8.5 10.6-.6.9-5.8 6.5-11.4 12.5-5.6 6-11.4 12.3-13 14-2.8 3.1-20.2 21.9-25.7 27.8-1.6 1.7-6.3 6.8-10.4 11.3-4.2 4.6-8.1 8.3-8.7 8.3-.7 0-2.3-1.3-3.6-2.9-1.3-1.6-4.9-5.5-7.9-8.8-3-3.3-9.3-10.1-14-15.3-4.7-5.1-9.6-10.5-11-12-1.4-1.5-5.9-6.4-10-10.9-4.1-4.6-8.6-9.5-10-11-1.4-1.5-6.3-6.9-11-12.1-4.7-5.2-9.2-10.1-10-11-.8-.9-8.2-9-16.5-18-8.2-9.1-17.2-19-20.1-22-10.2-11.1-13.2-14.6-14.9-18-1.7-3.3-1.8-8.8-1.8-98.5 0-70.9.3-95.9 1.1-98.5.7-1.9 3.6-6 6.5-9.1 4.7-5 17-18.4 31.7-34.4 3-3.3 5.7-6.2 6-6.5.3-.3 5-5.5 10.5-11.5 5.5-6.1 10.2-11.2 10.5-11.5.4-.3 3.5-3.7 7-7.5 3.5-3.9 8.4-9.3 11-12 2.5-2.8 9.7-10.5 15.9-17.3 10.8-11.8 13.9-13.9 15.8-11 .4.7.8 86.7.8 191 .1 159.1.3 190.1 1.5 192.2 2.1 4 6.4 3.5 10.9-1.1 4-4.2 24.2-25.9 26.9-29 .9-1.1 6.4-7.1 12.2-13.3 11.8-12.6 11.8-12.7 25-27 5.2-5.7 10.9-11.8 12.5-13.6 25.4-27.1 27.4-29.5 27.9-32.4.2-1.4.4-9 .3-16.9-.2-12.6-.4-14.5-2-15.5-2.1-1.3-1.5-1.8-41.2 41.3-3.3 3.6-8.7 9.5-12.1 13.1-3.3 3.6-8 8.7-10.5 11.4-2.4 2.6-6.2 6.7-8.4 9s-6.1 6.5-8.7 9.4l-4.8 5.1v-80.4l4.8-5.1c2.6-2.8 9.2-10 14.7-16 5.5-5.9 12.8-13.8 16.1-17.4 3.4-3.6 8.1-8.7 10.5-11.4 2.4-2.7 6-6.5 7.9-8.4l3.5-3.5.3-17.2c.3-15.1.1-17.3-1.3-18.5-1.8-1.5-2.1-1.3-19.9 18.1-3.2 3.5-10.7 11.6-16.6 17.9-5.9 6.3-12.8 13.7-15.3 16.5l-4.7 5V254l2.8-2.9c8.7-9.2 22.7-24.5 24.5-26.8 1.9-2.4 2.1-4.1 2.3-17.7 0-8.3-.3-16.1-.7-17.4-1.7-4.4-1.7-4.4-22.7 19.1L366 214V85.3l-2.9-3.9c-1.5-2.1-3.7-4.7-4.9-5.7-2.6-2.4-9.1-3.1-11.8-1.5z"/><path d="M262 243.7c-14.6 15.3-13.4 9.4-13.8 72.6-.3 55.9-.2 56.7 3.8 56.7.9 0 6-4.5 11.3-10.1 14.4-15.1 13.5-9.9 13.5-72.9 0-30.3-.4-53.2-.9-54.3-1.8-3.3-4.6-1.7-13.9 8zM292.2 372.6c-6.1 6.4-10.4 11.9-12 15.4l-2.6 5.5v37c.1 44.1-.5 41.5 12.8 55.9 10.1 11 12.1 12.5 14.3 10.4 1.2-1.3 1.4-10.6 1.4-61.4 0-32.9 0-62.2-.1-65.1 0-4.3-.4-5.4-2.2-6.4-1.9-1-2.9-.3-11.6 8.7z"/></svg>