<svg width="21" height="21" fill="none" xmlns="http://www.w3.org/2000/svg"><path d="M10.502 7.167A3.327 3.327 0 007.168 10.5a3.327 3.327 0 003.333 3.333 3.327 3.327 0 003.332-3.333 3.327 3.327 0 00-3.332-3.333zm0 5.5A2.17 2.17 0 018.335 10.5a2.17 2.17 0 012.166-2.167 2.17 2.17 0 012.167 2.167 2.17 2.17 0 01-2.166 2.167zm4.245-5.636a.775.775 0 01-.777.777.777.777 0 11.777-.777zm2.207.789c-.049-1.042-.287-1.964-1.05-2.724-.76-.76-1.682-.998-2.723-1.05-1.073-.061-4.29-.061-5.362 0-1.038.049-1.96.287-2.723 1.047-.763.76-.998 1.682-1.05 2.724-.061 1.073-.061 4.29 0 5.363.049 1.042.287 1.964 1.05 2.724.762.76 1.682.998 2.723 1.05 1.073.061 4.29.061 5.362 0 1.041-.049 1.964-.287 2.724-1.05.76-.76.997-1.682 1.05-2.724.06-1.073.06-4.287 0-5.36zm-1.386 6.512a2.193 2.193 0 01-1.235 1.236c-.856.34-2.886.26-3.832.26-.945 0-2.978.076-3.83-.26a2.193 2.193 0 01-1.236-1.236c-.34-.856-.261-2.886-.261-3.832 0-.946-.076-2.98.26-3.832A2.194 2.194 0 016.67 5.432c.856-.34 2.886-.26 3.832-.26.945 0 2.978-.076 3.83.26a2.193 2.193 0 011.236 1.236c.34.856.261 2.886.261 3.832 0 .946.078 2.98-.261 3.832z" fill="#90989C"/></svg>