<svg width="386" height="110" fill="none" xmlns="http://www.w3.org/2000/svg"><path d="M282.723 51v-1.398h-5.82v1.748c0 2.098-.323 3.496-.808 4.37-.485.874-1.455 1.224-2.586 1.224-1.293 0-2.102-.35-2.748-1.224-.485-.874-.809-2.272-.809-4.37V38.24c0-2.098.324-3.497.809-4.37.485-.875 1.455-1.224 2.748-1.224 1.293 0 2.101.35 2.586 1.223.485.874.808 2.273.808 4.37v.7h5.82v-1.574c0-3.146-.809-5.419-2.425-7.167-1.617-1.748-3.88-2.622-6.789-2.622-3.233 0-5.496.874-7.113 2.797-1.616 1.923-2.424 4.72-2.424 8.566V51c0 1.223.161 2.447.323 3.496.161 1.049.485 2.097.808 2.971.323.875.97 1.749 1.617 2.448.646.7 1.616 1.224 2.748 1.573 1.131.35 2.424.525 3.879.525 6.304.174 9.376-3.671 9.376-11.013zm74.843-4.544c1.293-.875 2.263-2.098 2.909-3.671.647-1.574.97-3.147.97-5.07 0-1.748-.323-3.496-.97-4.895-.646-1.398-1.616-2.622-2.748-3.496-1.131-.874-2.586-1.223-4.202-1.223h-10.992v33.038h5.819V47.68h5.011c1.455.175 2.91-.175 4.203-1.223zm-9.376-3.497V33.17h2.91c1.455 0 2.586.35 3.233 1.224.808.874 1.131 2.098 1.131 3.67 0 1.574-.323 2.798-1.131 3.672-.808.874-1.778 1.223-3.233 1.223h-2.91zM245.22 52.4c.485-2.447.647-6.293.647-11.712V28.276h-5.496v33.038h6.304l8.406-23.949c-.485 2.448-.647 6.294-.647 11.538v12.586h5.496V28.276h-6.142l-8.568 24.123zm-29.42-5.943a8.415 8.415 0 00-3.394-2.972c1.293-.35 2.263-1.049 3.071-2.622.808-1.399 1.293-2.972 1.293-4.72 0-1.049-.161-2.098-.485-2.972-.323-.874-.808-1.748-1.293-2.622-.485-.874-1.455-1.398-2.425-1.748-.97-.524-2.101-.7-3.556-.7h-10.992v33.04h11.639c2.263 0 4.041-.874 5.172-2.623 1.132-1.748 1.779-4.195 1.779-7.167.323-1.923 0-3.67-.809-4.894zM204 32.996h3.071c1.294 0 2.263.349 2.748 1.048.485.7.809 1.748.809 3.147 0 2.971-1.132 4.545-3.557 4.545H204v-8.74zm6.143 22.375c-.485.874-1.294 1.223-2.425 1.223H204V46.456h3.718c1.131 0 1.94.524 2.425 1.398.485.874.808 2.098.808 3.846 0 1.573-.162 2.972-.808 3.67zm-84.704-27.096h-17.296V38.59c0 4.37-.162 7.867-.647 10.314a48.384 48.384 0 01-2.101 7.517h-1.778v11.712h5.496V61.49h12.77v6.643h5.496V56.42h-1.94V28.275zm-5.658 27.97h-8.567c.97-2.273 1.616-4.545 2.101-6.643.485-2.098.647-5.244.647-8.74v-7.517h5.819v22.9zm264.457-22.55c-.485-1.399-1.132-2.623-2.102-3.497a7.214 7.214 0 00-3.071-1.922c-1.132-.35-2.586-.525-4.041-.525-1.455 0-2.91.175-4.041.524a7.223 7.223 0 00-3.072 1.923 10.214 10.214 0 00-2.101 3.496c-.485 1.399-.647 3.322-.647 5.245V51c0 7.342 3.395 11.187 10.022 11.187 1.455 0 2.91-.174 4.042-.524 1.131-.35 2.263-1.049 3.071-1.748.97-.874 1.616-1.923 2.101-3.496.485-1.574.647-3.147.647-5.245v-12.06c-.162-2.098-.323-4.021-.808-5.42zM379.065 51.7c0 1.748-.323 2.972-.97 4.02-.646 1.05-1.616 1.399-2.91 1.399-2.748 0-4.041-1.748-4.041-5.244v-13.46c0-3.672 1.293-5.594 4.041-5.594 1.294 0 2.264.524 2.91 1.573.647 1.049.97 2.447.97 4.195V51.7zm-186.704 6.817c1.294-1.923 1.94-4.545 1.94-7.691 0-1.574-.323-3.147-.97-4.545-.646-1.399-1.616-2.622-2.748-3.671-1.293-1.05-2.586-1.399-4.041-1.399h-4.849v-12.76h-5.82v33.038h11.154c2.263-.175 4.041-1.049 5.334-2.972zm-10.83-1.923V45.931h3.395c1.131 0 1.939.525 2.424 1.573.485 1.05.97 2.273.97 4.021 0 1.748-.323 3.147-.808 3.846-.647.874-1.455 1.223-2.586 1.223h-3.395zm-27.965-12.41c0 4.02-.162 6.817-.323 8.74-.162 1.922-.485 3.146-.809 3.496-.323.524-.808.699-1.455.699-.808 0-1.454 0-1.939-.175v4.545c.97.35 2.101.35 3.556.35 2.425 0 4.041-1.224 5.011-3.671.97-2.448 1.455-6.643 1.455-12.237v-12.76h6.142v27.968h5.82V28.276h-17.458v15.908zM339.3 28.275h-16.004v33.038h5.82v-27.97H339.3v-5.069zm-102.485 27.97h-10.508V45.93h9.699v-5.07h-9.699v-7.69h10.508V28.1h-16.327v33.038h16.327v-4.894zm13.093-30.067c4.041 0 6.143-2.273 6.143-6.818h-3.072c0 1.224-.323 2.098-.808 2.797-.485.7-1.293 1.049-2.263 1.049s-1.778-.35-2.263-1.049c-.485-.7-.808-1.573-.808-2.797h-3.072c.162 4.545 2.264 6.818 6.143 6.818zm56.415 2.098l-7.759 33.038h6.305l1.778-8.565h6.627l1.455 8.565h6.304l-6.789-33.038h-7.921zm1.132 19.578l2.748-15.383 2.263 15.383h-5.011zm-10.507-.35h-10.831V51.7h10.831v-4.196zM91.008 62.188c3.071 0 5.334-.874 6.95-2.622 1.617-1.748 2.264-4.545 2.264-8.39v-14.16c0-2.797-.808-5.07-2.425-6.818-1.616-1.748-3.88-2.447-6.95-2.447-3.072 0-5.335.874-6.952 2.447-1.616 1.748-2.424 3.846-2.424 6.643v1.399h5.819c0-1.748.323-3.147.808-4.196.485-1.049 1.455-1.398 2.748-1.398 1.293 0 2.263.524 2.748 1.398.485.874.809 2.273.809 4.196v2.622h-4.85v5.07h4.85V51.7c0 1.573-.324 2.972-.809 3.846-.646.874-1.454 1.398-2.586 1.398-1.293 0-2.263-.35-2.748-1.224-.485-.874-.808-2.097-.808-3.845v-2.273h-5.82v1.573c0 3.846.809 6.643 2.263 8.216 1.617 1.923 4.042 2.797 7.113 2.797zm56.092-5.943h-10.507V45.93h9.699v-5.07h-9.699v-7.69H147.1V28.1h-16.327v33.038H147.1v-4.894zM140.149 74.6c-1.455 0-2.586.524-3.556 1.573-.97 1.049-1.455 2.273-1.455 3.846s.485 2.797 1.455 3.846c.97 1.049 2.101 1.573 3.556 1.573s2.586-.525 3.556-1.573c.97-1.05 1.455-2.273 1.455-3.846s-.485-2.797-1.455-3.846c-.97-1.049-2.101-1.573-3.556-1.573zm2.748 8.216c-.647.699-1.616 1.224-2.586 1.224-.97 0-1.94-.35-2.587-1.224-.646-.7-1.131-1.748-1.131-2.797 0-1.224.323-2.098 1.131-2.797.647-.7 1.617-1.224 2.587-1.224 1.131 0 1.939.35 2.586 1.224.647.874 1.132 1.748 1.132 2.797-.162 1.049-.485 2.098-1.132 2.797zm10.022-8.041h-1.455l-2.101 3.845-2.263-3.845h-1.455l2.91 5.069-3.072 5.244h1.455l2.425-4.02 2.425 4.02h1.455l-3.072-5.419 2.748-4.894zm-17.619 0h-1.617l-4.041 4.72v-4.72h-1.293v10.313h1.293v-4.894l4.203 4.894h1.616l-4.364-5.419 4.203-4.894zm23.115-.175c-1.455 0-2.586.524-3.556 1.573-.97 1.049-1.455 2.273-1.455 3.846s.485 2.797 1.455 3.846c.97 1.049 2.101 1.573 3.556 1.573s2.587-.525 3.556-1.573c.97-1.05 1.455-2.273 1.455-3.846s-.485-2.797-1.455-3.846a4.825 4.825 0 00-3.556-1.573zm2.587 8.216c-.647.699-1.617 1.224-2.587 1.224-.97 0-1.94-.35-2.586-1.224-.647-.7-1.132-1.748-1.132-2.797 0-1.224.324-2.098 1.132-2.797.646-.7 1.616-1.224 2.586-1.224 1.132 0 1.94.35 2.587 1.224.646.874 1.131 1.748 1.131 2.797 0 1.049-.485 2.098-1.131 2.797zm218.548-6.818c.647 0 1.293.175 1.778.525.485.35.97.874 1.293 1.398l1.132-.7c-.485-.698-.97-1.398-1.778-1.922-.809-.524-1.617-.7-2.425-.7-1.455 0-2.586.525-3.556 1.574-.97 1.049-1.455 2.273-1.455 3.846s.485 2.797 1.455 3.846c.97 1.049 2.101 1.573 3.556 1.573.808 0 1.616-.175 2.425-.7.808-.524 1.293-1.048 1.778-1.922l-1.132-.7c-.323.525-.646 1.05-1.293 1.399-.485.35-1.131.525-1.778.525-1.132 0-1.94-.35-2.748-1.224-.647-.7-.97-1.748-.97-2.797 0-1.224.323-2.098.97-2.972.647-.7 1.616-1.049 2.748-1.049zm-12.609 6.468v-7.691h-1.293v10.313h.97l5.011-7.691v7.691h1.293V74.775h-.969l-5.012 7.691zM88.098 75.998c.647 0 1.293.175 1.778.525.485.35.97.874 1.294 1.398l1.131-.7c-.485-.698-.97-1.398-1.778-1.922s-1.617-.7-2.425-.7c-1.455 0-2.586.525-3.556 1.574-.97 1.049-1.455 2.273-1.455 3.846s.485 2.797 1.455 3.846c.97 1.049 2.101 1.573 3.556 1.573.808 0 1.617-.175 2.425-.7.808-.524 1.293-1.048 1.778-1.922l-1.293-.7c-.323.525-.647 1.05-1.293 1.399-.485.35-1.132.525-1.778.525-1.132 0-1.94-.35-2.748-1.224-.647-.7-.97-1.748-.97-2.797 0-1.224.323-2.098.97-2.972.808-.7 1.778-1.049 2.91-1.049zm97.959-2.272v-1.05h-3.718v1.05h3.718zm-91.17 6.817h4.042V79.32h-4.041v-3.147h4.364V74.95h-5.658v10.314h5.658v-1.398h-4.526v-3.322h.162zm7.113.175c0 1.224-.162 2.273-.485 2.622-.323.525-.808.7-1.455.525v1.223c.485 0 .97 0 1.293-.174.324-.175.647-.35.97-.7.324-.35.485-.874.647-1.398.162-.7.162-1.399.162-2.273v-4.545h3.717v9.09h1.455V74.775H102v5.943zm20.853-4.72c.646 0 1.293.175 1.778.525.485.35.97.874 1.293 1.398l1.131-.7c-.484-.698-.969-1.398-1.778-1.922-.808-.524-1.616-.7-2.424-.7-1.455 0-2.587.525-3.557 1.574-.97 1.049-1.454 2.273-1.454 3.846s.484 2.797 1.454 3.846 2.102 1.573 3.557 1.573c.808 0 1.616-.175 2.424-.7.809-.524 1.294-1.048 1.778-1.922l-1.131-.7c-.323.525-.647 1.05-1.293 1.399-.485.35-1.132.525-1.778.525-1.132 0-1.94-.35-2.748-1.224-.647-.7-.97-1.748-.97-2.797 0-1.224.323-2.098.97-2.972.808-.7 1.778-1.049 2.748-1.049zm-9.053 2.448h-2.263v-3.671h-1.293v10.313h3.556c.809 0 1.617-.35 2.263-.874.647-.524.809-1.398.809-2.447 0-.874-.324-1.748-.809-2.447-.646-.525-1.454-.874-2.263-.874zm1.294 4.894c-.324.35-.809.525-1.294.525h-2.263v-4.021h2.263c.485 0 .97.175 1.294.525.323.35.484.874.484 1.398 0 .7-.161 1.049-.484 1.573zm228.085-2.797h4.041V79.32h-4.041v-3.147h4.365V74.95h-5.658v10.314h5.658v-1.398h-4.527v-3.322h.162zm-72.257 0h4.042V79.32h-4.042v-3.147h4.365V74.95h-5.658v10.314h5.658v-1.398h-4.526v-3.322h.161zm20.045-1.398h-4.688v-4.37h-1.293v10.313h1.293v-4.72h4.688v4.72h1.293V74.775h-1.293v4.37zm-7.436-4.37h-1.455l-2.101 3.845-2.102-3.845h-1.455l2.91 5.069-3.071 5.42h1.455l2.424-4.021 2.425 4.02h1.455l-3.071-5.419 2.586-5.07zm-114.285 5.069c.808-.524 1.131-1.224 1.131-2.272 0-.874-.323-1.574-.808-2.098-.647-.525-1.293-.874-2.263-.874-1.617 0-2.586.699-3.233 2.098l1.131.699c.324-1.05 1.132-1.574 2.102-1.574.646 0 .97.175 1.293.525.323.35.485.7.485 1.224s-.162.874-.485 1.223c-.323.35-.808.525-1.455.525h-.808v1.223h1.132c.646 0 1.131.175 1.454.525.324.35.485.699.485 1.223 0 .525-.161.874-.485 1.224-.323.35-.808.525-1.616.525-1.293 0-2.102-.525-2.263-1.749l-1.132.7c.162.699.647 1.223 1.132 1.748.485.524 1.293.699 2.263.699s1.778-.35 2.425-.874c.646-.524.969-1.224.969-2.098 0-.524-.161-1.049-.484-1.573-.162-.525-.485-.874-.97-1.049zm74.843-5.07l-3.556 10.314h1.293l.808-2.272h4.364l.809 2.272h1.293l-3.556-10.313h-1.455zm-.97 6.818l1.778-5.07 1.778 5.07h-3.556zm7.759-5.943c-.647.699-.808 1.398-.808 2.272 0 .7.161 1.399.646 1.923.485.525.97.874 1.617 1.049l-2.587 4.02h1.455l2.425-4.02h1.94v4.02h1.293V74.6h-3.88c-.808.175-1.616.524-2.101 1.049zm4.688 4.195h-2.587c-.485 0-.808-.175-1.131-.524-.323-.35-.485-.874-.485-1.399 0-.524.162-1.049.485-1.398.323-.35.808-.525 1.131-.525h2.587v3.846zm69.67-1.573c-.485 0-.808.175-1.131.524-.324.35-.485.7-.485 1.224s.161.874.485 1.224c.323.35.646.524 1.131.524s.808-.175 1.132-.524c.323-.35.485-.7.485-1.224 0-.525-.162-.874-.485-1.224-.324-.35-.647-.524-1.132-.524zm-29.743 4.195v-7.691H294.2v10.313h.97l5.011-7.691v7.691h1.293V74.775h-.97l-5.011 7.691zm40.897-6.468c.647 0 1.293.175 1.778.525.485.35.97.874 1.293 1.398l1.132-.7c-.485-.698-.97-1.398-1.778-1.922-.809-.524-1.617-.7-2.425-.7-1.455 0-2.586.525-3.556 1.574-.97 1.049-1.455 2.273-1.455 3.846s.485 2.797 1.455 3.846c.97 1.049 2.101 1.573 3.556 1.573.808 0 1.616-.175 2.425-.7.808-.524 1.293-1.048 1.778-1.922l-1.132-.7c-.323.525-.646 1.05-1.293 1.399-.485.35-1.131.525-1.778.525-1.132 0-1.94-.35-2.748-1.224-.647-.7-.97-1.748-.97-2.797 0-1.224.323-2.098.97-2.972.646-.7 1.616-1.049 2.748-1.049zm-21.984-1.223l-3.557 10.313h1.294l.808-2.272h4.364l.809 2.272h1.293l-3.556-10.313h-1.455zm-.97 6.817l1.778-5.07 1.778 5.07h-3.556zm-3.071-6.817h-1.617l-4.041 4.72v-4.72h-1.293v10.313h1.293v-4.894l4.203 4.894h1.616l-4.364-5.419 4.203-4.894zm-48.98 1.223h2.748v9.09h1.293v-9.09h2.91v-1.223h-6.951v1.223zm-79.531 6.468v-7.691h-1.293v10.313h.97l5.011-7.691v7.691h1.293V74.775h-.97l-5.011 7.691zm17.297-6.468h2.748v9.09h1.293v-9.09h2.909v-1.223h-6.95v1.223zm-4.688 0c.646 0 1.293.175 1.778.525.485.35.97.874 1.293 1.398l1.132-.7c-.485-.698-.97-1.398-1.778-1.922-.809-.524-1.617-.7-2.425-.7-1.455 0-2.587.525-3.556 1.574-.97 1.049-1.455 2.273-1.455 3.846s.485 2.797 1.455 3.846c.969 1.049 2.101 1.573 3.556 1.573.808 0 1.616-.175 2.425-.7.808-.524 1.293-1.048 1.778-1.922l-1.132-.7c-.323.525-.646 1.05-1.293 1.399-.485.35-1.132.525-1.778.525-1.132 0-1.94-.35-2.748-1.224-.647-.7-.97-1.748-.97-2.797 0-1.224.323-2.098.97-2.972.646-.7 1.616-1.049 2.748-1.049zm168.276 3.846c.646-.524.969-1.224.969-2.098 0-.874-.323-1.398-.808-2.097-.485-.525-1.131-.874-1.94-.874h-3.717v10.313h4.202c.809 0 1.455-.35 1.94-.874a3.015 3.015 0 00.808-2.097 3.5 3.5 0 00-.323-1.399c-.323-.35-.647-.7-1.131-.874zm-4.203-3.846h2.586c.323 0 .808.175.97.525.323.35.485.699.485 1.049 0 .524-.162.874-.485 1.048-.323.35-.647.525-.97.525h-2.586v-3.147zm3.879 7.342c-.323.35-.646.525-1.131.525h-2.91v-3.322h2.91c.485 0 .808.175 1.131.525.324.35.485.699.485 1.223 0 .35-.161.7-.485 1.05zm-124.307-4.195h-4.688v-4.37h-1.293v10.313h1.293v-4.72h4.688v4.72h1.293V74.775h-1.293v4.37zm-65.468-3.496c-.646.699-.808 1.398-.808 2.272 0 .7.162 1.399.647 1.923.485.525.97.874 1.616 1.049l-2.586 4.02h1.455l2.424-4.02h1.94v4.02h1.293V74.6h-3.879c-.809.175-1.617.524-2.102 1.049zm4.688 4.195h-2.586c-.485 0-.809-.175-1.132-.524-.323-.35-.485-.874-.485-1.399 0-.524.162-1.049.485-1.398.323-.35.808-.525 1.132-.525h2.586v3.846zm39.604.7h4.041V79.32h-4.041v-3.147h4.364V74.95h-5.657v10.314h5.657v-1.398h-4.526v-3.322h.162zm11.962-1.4h-4.688v-4.37h-1.293v10.314h1.293v-4.72h4.688v4.72h1.293V74.775h-1.293v4.37zm123.822-4.37h-3.556v10.314h1.293v-3.67h2.263c.809 0 1.617-.35 2.263-1.05.647-.699.809-1.398.809-2.447 0-.874-.324-1.748-.809-2.447-.646-.35-1.454-.7-2.263-.7zm1.294 4.72c-.324.35-.809.525-1.294.525h-2.263v-4.02h2.263c.485 0 .97.174 1.294.524.323.35.484.874.484 1.398 0 .7-.161 1.224-.484 1.573zm-141.281.35c.647-.524.97-1.224.97-2.098 0-.874-.323-1.398-.808-2.097-.485-.525-1.132-.874-1.94-.874h-3.88v10.313h4.203c.808 0 1.455-.35 1.94-.874a3.015 3.015 0 00.808-2.097 3.5 3.5 0 00-.323-1.399 1.7 1.7 0 00-.97-.874zm-4.203-3.846h2.587c.323 0 .808.175.969.525.324.35.485.699.485 1.049 0 .524-.161.874-.485 1.048-.323.35-.646.525-.969.525h-2.587v-3.147zm4.041 7.342c-.323.35-.646.525-1.131.525h-2.91v-3.322h2.91c.485 0 .808.175 1.131.525.324.35.485.699.485 1.223l-.485 1.05zM17.296 32.646c0-.7-.808-1.224-1.293-.525l-3.071 3.147c-.808.874-1.293 2.272-1.293 3.496v19.753c0 .7.808 1.224 1.293.525l3.071-3.147c.808-.874 1.293-2.272 1.293-3.496V32.646zm4.527 24.997l-3.072 3.322c-.808.874-1.293 2.272-1.293 3.496v12.411c0 1.399.485 2.622 1.293 3.496l3.072 3.322c.485.524 1.293.175 1.293-.525V58.168c0-.7-.808-1.05-1.293-.525z" fill="#EEE"/><path d="M50.92 19.71l-9.215-9.964c-.485-.525-1.293-.175-1.293.524v4.72c0 .874.323 1.748.97 2.447l3.718 4.02c8.244 8.916 12.77 20.803 12.77 33.214 0 12.062-4.364 23.774-12.124 32.515v.175l-13.74 14.858a.464.464 0 01-.646 0L6.79 75.299a3.595 3.595 0 01-.97-2.448V36.666c0-.874.323-1.923.97-2.447l20.852-22.725c.485-.525 1.293-.175 1.293.524v74.469c0 1.223 1.293 1.748 2.101.874l20.53-22.201a1.97 1.97 0 00.485-1.224v-5.594c0-.524-.647-.874-.97-.524L34.754 75.474V59.566L45.746 47.68a1.97 1.97 0 00.485-1.224v-5.593c0-.525-.646-.875-.97-.525L34.755 51.7V35.792l5.335-5.769a1.97 1.97 0 00.485-1.223v-5.594c0-.525-.647-.874-.97-.525l-4.688 5.245V3.103c0-.525-.162-1.224-.647-1.573l-.808-.874c-.808-.875-2.101-.875-2.91 0L2.91 30.198C1.132 32.296 0 35.093 0 37.89v33.563c0 2.972 1.132 5.769 2.91 7.692l27.157 29.368c.97 1.048 2.424 1.048 3.233 0l17.458-18.88c8.082-8.74 12.608-20.627 12.608-32.864V53.1c.162-12.587-4.364-24.649-12.447-33.39z" fill="#11BE37"/></svg>