<?xml version="1.0" encoding="utf-8"?>
<!-- Generator: Adobe Illustrator 24.3.0, SVG Export Plug-In . SVG Version: 6.00 Build 0)  -->
<svg version="1.1" id="Layer_1" xmlns="http://www.w3.org/2000/svg" xmlns:xlink="http://www.w3.org/1999/xlink" x="0px" y="0px"
	 viewBox="0 0 21 21" style="enable-background:new 0 0 21 21;" xml:space="preserve">
<style type="text/css">
	.st0{fill:#90989C;}
</style>
<path class="st0" d="M10,4c-3.6,0-6.5,2.9-6.5,6.5S6.4,17,10,17h3.2v-1.3H10c-2.8,0-5.2-2.4-5.2-5.2S7.2,5.3,10,5.3s5.2,2.4,5.2,5.2
	v0.9c0,0.5-0.5,1-1,1c-0.5,0-1-0.5-1-1v-0.9c0-1.8-1.5-3.2-3.2-3.2s-3.2,1.5-3.2,3.2s1.5,3.2,3.2,3.2c0.9,0,1.7-0.4,2.3-1
	c0.4,0.6,1.2,1,1.9,1c1.3,0,2.3-1,2.3-2.3v-0.9C16.5,6.9,13.6,4,10,4z M10,12.4c-1.1,0-1.9-0.9-1.9-1.9S8.9,8.6,10,8.6
	s1.9,0.9,1.9,1.9S11.1,12.4,10,12.4z"/>
</svg>
