<svg width="12" height="13" viewBox="0 0 12 13" fill="none" xmlns="http://www.w3.org/2000/svg">
<path d="M11.5641 0.624871L9.12662 0.0155086C8.86178 -0.0505056 8.58991 0.0992959 8.4821 0.368431L7.35713 3.21212C7.25869 3.46094 7.32431 3.75293 7.51884 3.92304L8.93912 5.18239C8.09539 7.12981 6.6212 8.7497 4.78608 9.68151L3.62361 8.14288C3.46424 7.93214 3.19705 7.86105 2.96737 7.96768L0.342425 9.18641C0.0916485 9.30574 -0.0466299 9.60027 0.0143063 9.88717L0.576795 12.5277C0.635387 12.802 0.860383 13 1.12522 13C7.12744 13 12 7.73156 12 1.219C12 0.93463 11.8195 0.688346 11.5641 0.624871Z" fill="white"/>
</svg>
