<svg width="21" height="21" fill="none" xmlns="http://www.w3.org/2000/svg"><path d="M17.658 6.543c.103-.313 0-.543-.495-.543h-1.64c-.418 0-.61.197-.713.418 0 0-.836 1.827-2.017 3.012-.381.343-.556.453-.765.453-.103 0-.262-.11-.262-.423V6.542c0-.374-.117-.542-.462-.542H8.725c-.262 0-.418.175-.418.338 0 .354.59.437.652 1.437v2.17c0 .475-.095.563-.303.563-.557 0-1.91-1.835-2.713-3.935-.161-.408-.32-.573-.74-.573h-1.64C3.094 6 3 6.197 3 6.418c0 .39.557 2.327 2.592 4.887C6.95 13.053 8.86 14 10.596 14c1.045 0 1.173-.21 1.173-.572 0-1.67-.095-1.828.428-1.828.243 0 .66.11 1.635.953 1.114 1 1.298 1.447 1.921 1.447h1.64c.468 0 .705-.21.569-.625-.312-.873-2.42-2.668-2.515-2.787-.242-.28-.172-.405 0-.655.003-.003 2.005-2.533 2.211-3.39z" fill="#90989C"/></svg>