<svg width="62" height="37" viewBox="0 0 62 37" fill="none" xmlns="http://www.w3.org/2000/svg">
<path d="M60.4277 2.74925C60.8524 1.35487 60.4277 0.328613 58.3843 0.328613H51.623C49.9011 0.328613 49.109 1.20986 48.6842 2.1915C48.6842 2.1915 45.2404 10.3458 40.3731 15.6333C38.8004 17.1615 38.0772 17.6523 37.2163 17.6523C36.7916 17.6523 36.1372 17.1615 36.1372 15.7671V2.74925C36.1372 1.076 35.6551 0.328613 34.2316 0.328613H23.6017C22.5226 0.328613 21.8798 1.10946 21.8798 1.83454C21.8798 3.41855 24.3134 3.78666 24.566 8.24866V17.9312C24.566 20.0506 24.1757 20.4411 23.3147 20.4411C21.0188 20.4411 15.4398 12.2533 12.1338 2.88311C11.4679 1.06484 10.8136 0.328613 9.08022 0.328613H2.31884C0.3903 0.328613 0 1.20986 0 2.1915C0 3.93167 2.29588 12.5768 10.6873 23.9995C16.2778 31.7968 24.1527 36.0246 31.3159 36.0246C35.6207 36.0246 36.1487 35.0876 36.1487 33.4701C36.1487 26.0186 35.7584 25.3158 37.9165 25.3158C38.9152 25.3158 40.6372 25.8066 44.655 29.5658C49.2467 34.0278 50.0044 36.0246 52.5758 36.0246H59.3371C61.2657 36.0246 62.2414 35.0876 61.679 33.2358C60.3933 29.3427 51.7033 21.3335 51.313 20.798C50.3143 19.5487 50.6013 18.9909 51.313 17.8754C51.3245 17.8643 59.5782 6.57541 60.4277 2.74925Z" fill="#90989C"/>
</svg>
