<svg width="64" height="48" viewBox="0 0 64 48" fill="none" xmlns="http://www.w3.org/2000/svg">
<path d="M61.8747 7.6306C61.1537 4.74273 59.0293 2.46833 56.332 1.69648C51.4429 0.293945 31.8382 0.293945 31.8382 0.293945C31.8382 0.293945 12.2337 0.293945 7.34445 1.69648C4.64713 2.46846 2.52275 4.74273 1.80173 7.6306C0.491699 12.865 0.491699 23.7862 0.491699 23.7862C0.491699 23.7862 0.491699 34.7073 1.80173 39.9418C2.52275 42.8296 4.64713 45.0093 7.34445 45.7811C12.2337 47.1837 31.8382 47.1837 31.8382 47.1837C31.8382 47.1837 51.4428 47.1837 56.332 45.7811C59.0293 45.0093 61.1537 42.8296 61.8747 39.9418C63.1847 34.7073 63.1847 23.7862 63.1847 23.7862C63.1847 23.7862 63.1847 12.865 61.8747 7.6306ZM25.4264 33.7018V13.8706L41.812 23.7864L25.4264 33.7018Z" fill="#90989C"/>
</svg>
