<svg width="21" height="21" viewBox="0 0 21 21" fill="none" xmlns="http://www.w3.org/2000/svg">
<path d="M10.5015 7.16696C8.65694 7.16696 7.16916 8.65508 7.16916 10.5C7.16916 12.3449 8.65694 13.833 10.5015 13.833C12.346 13.833 13.8337 12.3449 13.8337 10.5C13.8337 8.65508 12.346 7.16696 10.5015 7.16696ZM10.5015 12.6669C9.30948 12.6669 8.33502 11.6951 8.33502 10.5C8.33502 9.30486 9.30658 8.33309 10.5015 8.33309C11.6963 8.33309 12.6679 9.30486 12.6679 10.5C12.6679 11.6951 11.6934 12.6669 10.5015 12.6669V12.6669ZM14.7473 7.03063C14.7473 7.46285 14.3993 7.80804 13.9701 7.80804C13.5379 7.80804 13.1928 7.45995 13.1928 7.03063C13.1928 6.60131 13.5408 6.25321 13.9701 6.25321C14.3993 6.25321 14.7473 6.60131 14.7473 7.03063ZM16.9543 7.81965C16.905 6.77826 16.6672 5.8558 15.9045 5.09578C15.1446 4.33577 14.2224 4.0979 13.1812 4.04569C12.1081 3.98477 8.89186 3.98477 7.8188 4.04569C6.78054 4.095 5.85828 4.33287 5.09554 5.09288C4.33279 5.8529 4.09788 6.77535 4.04568 7.81675C3.98477 8.89005 3.98477 12.1071 4.04568 13.1804C4.09498 14.2217 4.33279 15.1442 5.09554 15.9042C5.85828 16.6642 6.77764 16.9021 7.8188 16.9543C8.89186 17.0152 12.1081 17.0152 13.1812 16.9543C14.2224 16.905 15.1446 16.6671 15.9045 15.9042C16.6643 15.1442 16.9021 14.2217 16.9543 13.1804C17.0152 12.1071 17.0152 8.89295 16.9543 7.81965V7.81965ZM15.568 14.332C15.3418 14.9005 14.9039 15.3386 14.3326 15.5677C13.477 15.9071 11.4469 15.8288 10.5015 15.8288C9.556 15.8288 7.52298 15.9042 6.67033 15.5677C6.1019 15.3415 5.66397 14.9034 5.43486 14.332C5.09554 13.4762 5.17384 11.4457 5.17384 10.5C5.17384 9.55433 5.09844 7.52086 5.43486 6.66802C5.66107 6.09946 6.099 5.66144 6.67033 5.43228C7.52588 5.09288 9.556 5.1712 10.5015 5.1712C11.4469 5.1712 13.4799 5.09578 14.3326 5.43228C14.901 5.65854 15.3389 6.09656 15.568 6.66802C15.9074 7.52376 15.8291 9.55433 15.8291 10.5C15.8291 11.4457 15.9074 13.4791 15.568 14.332Z" fill="#90989C"/>
</svg>
