<svg width="386" height="110" viewBox="0 0 386 110" fill="none" xmlns="http://www.w3.org/2000/svg">
<path d="M282.723 51.0006V49.6021H276.903V51.3502C276.903 53.4479 276.58 54.8464 276.095 55.7204C275.61 56.5945 274.64 56.9441 273.509 56.9441C272.216 56.9441 271.407 56.5945 270.761 55.7204C270.276 54.8464 269.952 53.4479 269.952 51.3502V38.2396C269.952 36.1419 270.276 34.7434 270.761 33.8694C271.246 32.9953 272.216 32.6457 273.509 32.6457C274.802 32.6457 275.61 32.9953 276.095 33.8694C276.58 34.7434 276.903 36.1419 276.903 38.2396V38.9388H282.723V37.3655C282.723 34.219 281.914 31.9465 280.298 30.1984C278.681 28.4503 276.418 27.5762 273.509 27.5762C270.276 27.5762 268.013 28.4503 266.396 30.3732C264.78 32.2961 263.972 35.093 263.972 38.9388V51.0006C263.972 52.2243 264.133 53.4479 264.295 54.4968C264.456 55.5456 264.78 56.5945 265.103 57.4685C265.426 58.3426 266.073 59.2166 266.72 59.9159C267.366 60.6151 268.336 61.1395 269.468 61.4891C270.599 61.8388 271.892 62.0136 273.347 62.0136C279.651 62.1884 282.723 58.3426 282.723 51.0006ZM357.566 46.4556C358.859 45.5815 359.829 44.3579 360.475 42.7846C361.122 41.2113 361.445 39.638 361.445 37.7151C361.445 35.9671 361.122 34.219 360.475 32.8205C359.829 31.422 358.859 30.1984 357.727 29.3243C356.596 28.4503 355.141 28.1007 353.525 28.1007H342.533V61.1395H348.352V47.6792H353.363C354.818 47.8541 356.273 47.5044 357.566 46.4556ZM348.19 42.9594V33.1701H351.1C352.555 33.1701 353.686 33.5197 354.333 34.3938C355.141 35.2678 355.464 36.4915 355.464 38.0648C355.464 39.638 355.141 40.8617 354.333 41.7357C353.525 42.6098 352.555 42.9594 351.1 42.9594H348.19ZM245.22 52.3991C245.705 49.9518 245.867 46.106 245.867 40.6869V28.2755H240.371V61.3143H246.675L255.081 37.3655C254.596 39.8128 254.434 43.6586 254.434 48.9029V61.4891H259.93V28.2755H253.788L245.22 52.3991ZM215.8 46.4556C214.992 45.2319 213.861 44.1831 212.406 43.4838C213.699 43.1342 214.669 42.435 215.477 40.8617C216.285 39.4632 216.77 37.89 216.77 36.1419C216.77 35.093 216.609 34.0442 216.285 33.1701C215.962 32.2961 215.477 31.422 214.992 30.548C214.507 29.6739 213.537 29.1495 212.567 28.7999C211.597 28.2755 210.466 28.1007 209.011 28.1007H198.019V61.1395H209.658C211.921 61.1395 213.699 60.2655 214.83 58.5174C215.962 56.7693 216.609 54.322 216.609 51.3502C216.932 49.4273 216.609 47.6792 215.8 46.4556ZM204 32.9953H207.071C208.365 32.9953 209.334 33.3449 209.819 34.0442C210.304 34.7434 210.628 35.7922 210.628 37.1907C210.628 40.1625 209.496 41.7357 207.071 41.7357H204V32.9953V32.9953ZM210.143 55.3708C209.658 56.2449 208.849 56.5945 207.718 56.5945H204V46.4556H207.718C208.849 46.4556 209.658 46.98 210.143 47.8541C210.628 48.7281 210.951 49.9518 210.951 51.6998C210.951 53.2731 210.789 54.6716 210.143 55.3708ZM125.439 28.2755H108.143V38.5892C108.143 42.9594 107.981 46.4556 107.496 48.9029C107.011 51.3502 106.365 53.7975 105.395 56.4197H103.617V68.1319H109.113V61.4891H121.883V68.1319H127.379V56.4197H125.439V28.2755V28.2755ZM119.781 56.2449H111.214C112.184 53.9724 112.83 51.6998 113.315 49.6021C113.8 47.5044 113.962 44.3579 113.962 40.8617V33.3449H119.781V56.2449ZM384.238 33.6945C383.753 32.2961 383.106 31.0724 382.136 30.1984C381.328 29.3243 380.197 28.6251 379.065 28.2755C377.933 27.9259 376.479 27.751 375.024 27.751C373.569 27.751 372.114 27.9259 370.983 28.2755C369.851 28.6251 368.72 29.3243 367.911 30.1984C367.103 31.0724 366.295 32.2961 365.81 33.6945C365.325 35.093 365.163 37.0159 365.163 38.9388V51.0006C365.163 58.3426 368.558 62.1884 375.185 62.1884C376.64 62.1884 378.095 62.0136 379.227 61.6639C380.358 61.3143 381.49 60.6151 382.298 59.9159C383.268 59.0418 383.914 57.993 384.399 56.4197C384.884 54.8464 385.046 53.2731 385.046 51.1754V39.1136C384.884 37.0159 384.723 35.093 384.238 33.6945ZM379.065 51.6998C379.065 53.4479 378.742 54.6716 378.095 55.7204C377.449 56.7693 376.479 57.1189 375.185 57.1189C372.437 57.1189 371.144 55.3708 371.144 51.8747V38.4144C371.144 34.7434 372.437 32.8205 375.185 32.8205C376.479 32.8205 377.449 33.3449 378.095 34.3938C378.742 35.4426 379.065 36.8411 379.065 38.5892V51.6998ZM192.361 58.5174C193.655 56.5945 194.301 53.9724 194.301 50.8258C194.301 49.2525 193.978 47.6792 193.331 46.2808C192.685 44.8823 191.715 43.6586 190.583 42.6098C189.29 41.5609 187.997 41.2113 186.542 41.2113H181.693V28.4503H175.873V61.4891H187.027C189.29 61.3143 191.068 60.4403 192.361 58.5174ZM181.531 56.5945V45.9312H184.926C186.057 45.9312 186.865 46.4556 187.35 47.5044C187.835 48.5533 188.32 49.7769 188.32 51.525C188.32 53.2731 187.997 54.6716 187.512 55.3708C186.865 56.2449 186.057 56.5945 184.926 56.5945H181.531ZM153.566 44.1831C153.566 48.2037 153.404 51.0006 153.243 52.9235C153.081 54.8464 152.758 56.0701 152.434 56.4197C152.111 56.9441 151.626 57.1189 150.979 57.1189C150.171 57.1189 149.525 57.1189 149.04 56.9441V61.4891C150.01 61.8388 151.141 61.8388 152.596 61.8388C155.021 61.8388 156.637 60.6151 157.607 58.1678C158.577 55.7204 159.062 51.525 159.062 45.9312V33.1701H165.204V61.1395H171.024V28.2755H153.566V44.1831ZM339.3 28.2755H323.296V61.3143H329.116V33.3449H339.3V28.2755ZM236.815 56.2449H226.307V45.9312H236.006V40.8617H226.307V33.1701H236.815V28.1007H220.488V61.1395H236.815V56.2449ZM249.908 26.1778C253.949 26.1778 256.051 23.9053 256.051 19.3602H252.979C252.979 20.5839 252.656 21.4579 252.171 22.1572C251.686 22.8564 250.878 23.206 249.908 23.206C248.938 23.206 248.13 22.8564 247.645 22.1572C247.16 21.4579 246.837 20.5839 246.837 19.3602H243.765C243.927 23.9053 246.029 26.1778 249.908 26.1778ZM306.323 28.2755L298.564 61.3143H304.869L306.647 52.7487H313.274L314.729 61.3143H321.033L314.244 28.2755H306.323V28.2755ZM307.455 47.8541L310.203 32.4709L312.466 47.8541H307.455ZM296.948 47.5044H286.117V51.6998H296.948V47.5044ZM91.0079 62.1884C94.0793 62.1884 96.3423 61.3143 97.9588 59.5662C99.5753 57.8181 100.222 55.0212 100.222 51.1754V37.0159C100.222 34.219 99.4136 31.9465 97.7972 30.1984C96.1807 28.4503 93.9176 27.751 90.8463 27.751C87.775 27.751 85.5119 28.6251 83.8954 30.1984C82.2789 31.9465 81.4707 34.0442 81.4707 36.8411V38.2396H87.29C87.29 36.4915 87.6133 35.093 88.0983 34.0442C88.5832 32.9953 89.5531 32.6457 90.8463 32.6457C92.1395 32.6457 93.1094 33.1701 93.5943 34.0442C94.0793 34.9182 94.4026 36.3167 94.4026 38.2396V40.8617H89.5531V45.9312H94.4026V51.6998C94.4026 53.2731 94.0793 54.6716 93.5943 55.5456C92.9477 56.4197 92.1395 56.9441 91.0079 56.9441C89.7148 56.9441 88.7449 56.5945 88.2599 55.7204C87.775 54.8464 87.4517 53.6227 87.4517 51.8747V49.6021H81.6323V51.1754C81.6323 55.0212 82.4406 57.8181 83.8954 59.3914C85.5119 61.3143 87.9366 62.1884 91.0079 62.1884ZM147.1 56.2449H136.593V45.9312H146.292V40.8617H136.593V33.1701H147.1V28.1007H130.773V61.1395H147.1V56.2449ZM140.149 74.5998C138.694 74.5998 137.563 75.1242 136.593 76.1731C135.623 77.2219 135.138 78.4456 135.138 80.0189C135.138 81.5921 135.623 82.8158 136.593 83.8647C137.563 84.9135 138.694 85.4379 140.149 85.4379C141.604 85.4379 142.735 84.9135 143.705 83.8647C144.675 82.8158 145.16 81.5921 145.16 80.0189C145.16 78.4456 144.675 77.2219 143.705 76.1731C142.735 75.1242 141.604 74.5998 140.149 74.5998ZM142.897 82.8158C142.25 83.515 141.281 84.0395 140.311 84.0395C139.341 84.0395 138.371 83.6898 137.724 82.8158C137.078 82.1166 136.593 81.0677 136.593 80.0189C136.593 78.7952 136.916 77.9212 137.724 77.2219C138.371 76.5227 139.341 75.9983 140.311 75.9983C141.442 75.9983 142.25 76.3479 142.897 77.2219C143.544 78.096 144.029 78.97 144.029 80.0189C143.867 81.0677 143.544 82.1166 142.897 82.8158ZM152.919 74.7746H151.464L149.363 78.6204L147.1 74.7746H145.645L148.555 79.844L145.483 85.0883H146.938L149.363 81.0677L151.788 85.0883H153.243L150.171 79.6692L152.919 74.7746ZM135.3 74.7746H133.683L129.642 79.4944V74.7746H128.349V85.0883H129.642V80.1937L133.845 85.0883H135.461L131.097 79.6692L135.3 74.7746ZM158.415 74.5998C156.96 74.5998 155.829 75.1242 154.859 76.1731C153.889 77.2219 153.404 78.4456 153.404 80.0189C153.404 81.5921 153.889 82.8158 154.859 83.8647C155.829 84.9135 156.96 85.4379 158.415 85.4379C159.87 85.4379 161.002 84.9135 161.971 83.8647C162.941 82.8158 163.426 81.5921 163.426 80.0189C163.426 78.4456 162.941 77.2219 161.971 76.1731C161.002 75.1242 159.708 74.5998 158.415 74.5998ZM161.002 82.8158C160.355 83.515 159.385 84.0395 158.415 84.0395C157.445 84.0395 156.475 83.6898 155.829 82.8158C155.182 82.1166 154.697 81.0677 154.697 80.0189C154.697 78.7952 155.021 77.9212 155.829 77.2219C156.475 76.5227 157.445 75.9983 158.415 75.9983C159.547 75.9983 160.355 76.3479 161.002 77.2219C161.648 78.096 162.133 78.97 162.133 80.0189C162.133 81.0677 161.648 82.1166 161.002 82.8158ZM379.55 75.9983C380.197 75.9983 380.843 76.1731 381.328 76.5227C381.813 76.8723 382.298 77.3967 382.621 77.9212L383.753 77.2219C383.268 76.5227 382.783 75.8234 381.975 75.299C381.166 74.7746 380.358 74.5998 379.55 74.5998C378.095 74.5998 376.964 75.1242 375.994 76.1731C375.024 77.2219 374.539 78.4456 374.539 80.0189C374.539 81.5921 375.024 82.8158 375.994 83.8647C376.964 84.9135 378.095 85.4379 379.55 85.4379C380.358 85.4379 381.166 85.2631 381.975 84.7387C382.783 84.2143 383.268 83.6898 383.753 82.8158L382.621 82.1166C382.298 82.641 381.975 83.1654 381.328 83.515C380.843 83.8646 380.197 84.0395 379.55 84.0395C378.418 84.0395 377.61 83.6898 376.802 82.8158C376.155 82.1166 375.832 81.0677 375.832 80.0189C375.832 78.7952 376.155 77.9212 376.802 77.0471C377.449 76.3479 378.418 75.9983 379.55 75.9983ZM366.941 82.4662V74.7746H365.648V85.0883H366.618L371.629 77.3967V85.0883H372.922V74.7746H371.953L366.941 82.4662ZM88.0983 75.9983C88.7449 75.9983 89.3915 76.1731 89.8764 76.5227C90.3613 76.8723 90.8463 77.3967 91.1696 77.9212L92.3011 77.2219C91.8162 76.5227 91.3312 75.8234 90.523 75.299C89.7148 74.7746 88.9065 74.5998 88.0983 74.5998C86.6434 74.5998 85.5119 75.1242 84.542 76.1731C83.5721 77.2219 83.0872 78.4456 83.0872 80.0189C83.0872 81.5921 83.5721 82.8158 84.542 83.8647C85.5119 84.9135 86.6434 85.4379 88.0983 85.4379C88.9065 85.4379 89.7148 85.2631 90.523 84.7387C91.3312 84.2143 91.8162 83.6898 92.3011 82.8158L91.0079 82.1166C90.6846 82.641 90.3614 83.1654 89.7148 83.515C89.2298 83.8646 88.5832 84.0395 87.9366 84.0395C86.8051 84.0395 85.9969 83.6898 85.1886 82.8158C84.542 82.1166 84.2187 81.0677 84.2187 80.0189C84.2187 78.7952 84.542 77.9212 85.1886 77.0471C85.9969 76.3479 86.9667 75.9983 88.0983 75.9983ZM186.057 73.7257V72.6769H182.339V73.7257H186.057ZM94.8875 80.5433H98.9287V79.3196H94.8875V76.1731H99.252V74.9494H93.5943V85.2631H99.252V83.8647H94.7258V80.5433H94.8875ZM102 80.7181C102 81.9418 101.838 82.9906 101.515 83.3402C101.192 83.8646 100.707 84.0395 100.06 83.8647V85.0883C100.545 85.0883 101.03 85.0883 101.353 84.9135C101.677 84.7387 102 84.5639 102.323 84.2143C102.647 83.8646 102.808 83.3402 102.97 82.8158C103.132 82.1166 103.132 81.4173 103.132 80.5433V75.9983H106.849V85.0883H108.304V74.7746H102V80.7181ZM122.853 75.9983C123.499 75.9983 124.146 76.1731 124.631 76.5227C125.116 76.8723 125.601 77.3967 125.924 77.9212L127.055 77.2219C126.571 76.5227 126.086 75.8234 125.277 75.299C124.469 74.7746 123.661 74.5998 122.853 74.5998C121.398 74.5998 120.266 75.1242 119.296 76.1731C118.326 77.2219 117.842 78.4456 117.842 80.0189C117.842 81.5921 118.326 82.8158 119.296 83.8647C120.266 84.9135 121.398 85.4379 122.853 85.4379C123.661 85.4379 124.469 85.2631 125.277 84.7387C126.086 84.2143 126.571 83.6898 127.055 82.8158L125.924 82.1166C125.601 82.641 125.277 83.1654 124.631 83.515C124.146 83.8646 123.499 84.0395 122.853 84.0395C121.721 84.0395 120.913 83.6898 120.105 82.8158C119.458 82.1166 119.135 81.0677 119.135 80.0189C119.135 78.7952 119.458 77.9212 120.105 77.0471C120.913 76.3479 121.883 75.9983 122.853 75.9983ZM113.8 78.4456H111.537V74.7746H110.244V85.0883H113.8C114.609 85.0883 115.417 84.7387 116.063 84.2143C116.71 83.6898 116.872 82.8158 116.872 81.7669C116.872 80.8929 116.548 80.0189 116.063 79.3196C115.417 78.7952 114.609 78.4456 113.8 78.4456ZM115.094 83.3402C114.77 83.6898 114.285 83.8647 113.8 83.8647H111.537V79.844H113.8C114.285 79.844 114.77 80.0189 115.094 80.3685C115.417 80.7181 115.578 81.2425 115.578 81.7669C115.578 82.4662 115.417 82.8158 115.094 83.3402ZM343.179 80.5433H347.22V79.3196H343.179V76.1731H347.544V74.9494H341.886V85.2631H347.544V83.8647H343.017V80.5433H343.179ZM270.922 80.5433H274.964V79.3196H270.922V76.1731H275.287V74.9494H269.629V85.2631H275.287V83.8647H270.761V80.5433H270.922ZM290.967 79.1448H286.279V74.7746H284.986V85.0883H286.279V80.3685H290.967V85.0883H292.26V74.7746H290.967V79.1448ZM283.531 74.7746H282.076L279.975 78.6204L277.873 74.7746H276.418L279.328 79.844L276.257 85.2631H277.712L280.136 81.2425L282.561 85.2631H284.016L280.945 79.844L283.531 74.7746ZM169.246 79.844C170.054 79.3196 170.377 78.6204 170.377 77.5715C170.377 76.6975 170.054 75.9983 169.569 75.4738C168.922 74.9494 168.276 74.5998 167.306 74.5998C165.689 74.5998 164.72 75.299 164.073 76.6975L165.204 77.3967C165.528 76.3479 166.336 75.8235 167.306 75.8235C167.952 75.8235 168.276 75.9983 168.599 76.3479C168.922 76.6975 169.084 77.0471 169.084 77.5715C169.084 78.096 168.922 78.4456 168.599 78.7952C168.276 79.1448 167.791 79.3196 167.144 79.3196H166.336V80.5433H167.468C168.114 80.5433 168.599 80.7181 168.922 81.0677C169.246 81.4173 169.407 81.7669 169.407 82.2914C169.407 82.8158 169.246 83.1654 168.922 83.515C168.599 83.8646 168.114 84.0395 167.306 84.0395C166.013 84.0395 165.204 83.515 165.043 82.2914L163.911 82.9906C164.073 83.6898 164.558 84.2143 165.043 84.7387C165.528 85.2631 166.336 85.4379 167.306 85.4379C168.276 85.4379 169.084 85.0883 169.731 84.5639C170.377 84.0395 170.7 83.3402 170.7 82.4662C170.7 81.9418 170.539 81.4173 170.216 80.8929C170.054 80.3685 169.731 80.0189 169.246 79.844ZM244.089 74.7746L240.533 85.0883H241.826L242.634 82.8158H246.998L247.807 85.0883H249.1L245.544 74.7746H244.089ZM243.119 81.5921L244.897 76.5227L246.675 81.5921H243.119ZM250.878 75.6486C250.231 76.3479 250.07 77.0471 250.07 77.9212C250.07 78.6204 250.231 79.3196 250.716 79.844C251.201 80.3685 251.686 80.7181 252.333 80.8929L249.746 84.9135H251.201L253.626 80.8929H255.566V84.9135H256.859V74.5998H252.979C252.171 74.7746 251.363 75.1242 250.878 75.6486ZM255.566 79.844H252.979C252.494 79.844 252.171 79.6692 251.848 79.3196C251.525 78.97 251.363 78.4456 251.363 77.9212C251.363 77.3967 251.525 76.8723 251.848 76.5227C252.171 76.1731 252.656 75.9983 252.979 75.9983H255.566V79.844ZM325.236 78.2708C324.751 78.2708 324.428 78.4456 324.105 78.7952C323.781 79.1448 323.62 79.4944 323.62 80.0189C323.62 80.5433 323.781 80.8929 324.105 81.2425C324.428 81.5921 324.751 81.7669 325.236 81.7669C325.721 81.7669 326.044 81.5921 326.368 81.2425C326.691 80.8929 326.853 80.5433 326.853 80.0189C326.853 79.4944 326.691 79.1448 326.368 78.7952C326.044 78.4456 325.721 78.2708 325.236 78.2708ZM295.493 82.4662V74.7746H294.2V85.0883H295.17L300.181 77.3967V85.0883H301.474V74.7746H300.504L295.493 82.4662ZM336.39 75.9983C337.037 75.9983 337.683 76.1731 338.168 76.5227C338.653 76.8723 339.138 77.3967 339.461 77.9212L340.593 77.2219C340.108 76.5227 339.623 75.8234 338.815 75.299C338.006 74.7746 337.198 74.5998 336.39 74.5998C334.935 74.5998 333.804 75.1242 332.834 76.1731C331.864 77.2219 331.379 78.4456 331.379 80.0189C331.379 81.5921 331.864 82.8158 332.834 83.8647C333.804 84.9135 334.935 85.4379 336.39 85.4379C337.198 85.4379 338.006 85.2631 338.815 84.7387C339.623 84.2143 340.108 83.6898 340.593 82.8158L339.461 82.1166C339.138 82.641 338.815 83.1654 338.168 83.515C337.683 83.8646 337.037 84.0395 336.39 84.0395C335.258 84.0395 334.45 83.6898 333.642 82.8158C332.995 82.1166 332.672 81.0677 332.672 80.0189C332.672 78.7952 332.995 77.9212 333.642 77.0471C334.288 76.3479 335.258 75.9983 336.39 75.9983ZM314.406 74.7746L310.849 85.0883H312.143L312.951 82.8158H317.315L318.124 85.0883H319.417L315.861 74.7746H314.406ZM313.436 81.5921L315.214 76.5227L316.992 81.5921H313.436ZM310.365 74.7746H308.748L304.707 79.4944V74.7746H303.414V85.0883H304.707V80.1937L308.91 85.0883H310.526L306.162 79.6692L310.365 74.7746ZM261.385 75.9983H264.133V85.0883H265.426V75.9983H268.336V74.7746H261.385V75.9983ZM181.854 82.4662V74.7746H180.561V85.0883H181.531L186.542 77.3967V85.0883H187.835V74.7746H186.865L181.854 82.4662ZM199.151 75.9983H201.899V85.0883H203.192V75.9983H206.101V74.7746H199.151V75.9983ZM194.463 75.9983C195.109 75.9983 195.756 76.1731 196.241 76.5227C196.726 76.8723 197.211 77.3967 197.534 77.9212L198.666 77.2219C198.181 76.5227 197.696 75.8234 196.888 75.299C196.079 74.7746 195.271 74.5998 194.463 74.5998C193.008 74.5998 191.876 75.1242 190.907 76.1731C189.937 77.2219 189.452 78.4456 189.452 80.0189C189.452 81.5921 189.937 82.8158 190.907 83.8647C191.876 84.9135 193.008 85.4379 194.463 85.4379C195.271 85.4379 196.079 85.2631 196.888 84.7387C197.696 84.2143 198.181 83.6898 198.666 82.8158L197.534 82.1166C197.211 82.641 196.888 83.1654 196.241 83.515C195.756 83.8646 195.109 84.0395 194.463 84.0395C193.331 84.0395 192.523 83.6898 191.715 82.8158C191.068 82.1166 190.745 81.0677 190.745 80.0189C190.745 78.7952 191.068 77.9212 191.715 77.0471C192.361 76.3479 193.331 75.9983 194.463 75.9983ZM362.739 79.844C363.385 79.3196 363.708 78.6204 363.708 77.7463C363.708 76.8723 363.385 76.3479 362.9 75.6486C362.415 75.1242 361.769 74.7746 360.96 74.7746H357.243V85.0883H361.445C362.254 85.0883 362.9 84.7387 363.385 84.2143C363.87 83.6898 364.193 82.9906 364.193 82.1166C364.193 81.5921 364.032 81.0677 363.87 80.7181C363.547 80.3685 363.223 80.0189 362.739 79.844ZM358.536 75.9983H361.122C361.445 75.9983 361.93 76.1731 362.092 76.5227C362.415 76.8723 362.577 77.2219 362.577 77.5715C362.577 78.096 362.415 78.4456 362.092 78.6204C361.769 78.97 361.445 79.1448 361.122 79.1448H358.536V75.9983ZM362.415 83.3402C362.092 83.6898 361.769 83.8647 361.284 83.8647H358.374V80.5433H361.284C361.769 80.5433 362.092 80.7181 362.415 81.0677C362.739 81.4173 362.9 81.7669 362.9 82.2914C362.9 82.641 362.739 82.9906 362.415 83.3402ZM238.108 79.1448H233.42V74.7746H232.127V85.0883H233.42V80.3685H238.108V85.0883H239.401V74.7746H238.108V79.1448ZM172.64 75.6486C171.994 76.3479 171.832 77.0471 171.832 77.9212C171.832 78.6204 171.994 79.3196 172.479 79.844C172.964 80.3685 173.449 80.7181 174.095 80.8929L171.509 84.9135H172.964L175.388 80.8929H177.328V84.9135H178.621V74.5998H174.742C173.933 74.7746 173.125 75.1242 172.64 75.6486ZM177.328 79.844H174.742C174.257 79.844 173.933 79.6692 173.61 79.3196C173.287 78.97 173.125 78.4456 173.125 77.9212C173.125 77.3967 173.287 76.8723 173.61 76.5227C173.933 76.1731 174.418 75.9983 174.742 75.9983H177.328V79.844ZM216.932 80.5433H220.973V79.3196H216.932V76.1731H221.296V74.9494H215.639V85.2631H221.296V83.8647H216.77V80.5433H216.932ZM228.894 79.1448H224.206V74.7746H222.913V85.0883H224.206V80.3685H228.894V85.0883H230.187V74.7746H228.894V79.1448ZM352.716 74.7746H349.16V85.0883H350.453V81.4173H352.716C353.525 81.4173 354.333 81.0677 354.979 80.3685C355.626 79.6692 355.788 78.97 355.788 77.9212C355.788 77.0471 355.464 76.1731 354.979 75.4738C354.333 75.1242 353.525 74.7746 352.716 74.7746ZM354.01 79.4944C353.686 79.8441 353.201 80.0189 352.716 80.0189H350.453V75.9983H352.716C353.201 75.9983 353.686 76.1731 354.01 76.5227C354.333 76.8723 354.494 77.3967 354.494 77.9212C354.494 78.6204 354.333 79.1448 354.01 79.4944ZM212.729 79.844C213.376 79.3196 213.699 78.6204 213.699 77.7463C213.699 76.8723 213.376 76.3479 212.891 75.6486C212.406 75.1242 211.759 74.7746 210.951 74.7746H207.071V85.0883H211.274C212.082 85.0883 212.729 84.7387 213.214 84.2143C213.699 83.6898 214.022 82.9906 214.022 82.1166C214.022 81.5921 213.861 81.0677 213.699 80.7181C213.537 80.3685 213.214 80.0189 212.729 79.844ZM208.526 75.9983H211.113C211.436 75.9983 211.921 76.1731 212.082 76.5227C212.406 76.8723 212.567 77.2219 212.567 77.5715C212.567 78.096 212.406 78.4456 212.082 78.6204C211.759 78.97 211.436 79.1448 211.113 79.1448H208.526V75.9983ZM212.567 83.3402C212.244 83.6898 211.921 83.8647 211.436 83.8647H208.526V80.5433H211.436C211.921 80.5433 212.244 80.7181 212.567 81.0677C212.891 81.4173 213.052 81.7669 213.052 82.2914C212.891 82.641 212.729 82.9906 212.567 83.3402Z" fill="#EEEEEE"/>
<path d="M17.2964 32.6456C17.2964 31.9464 16.4881 31.422 16.0032 32.1212L12.9319 35.2678C12.1236 36.1418 11.6387 37.5403 11.6387 38.7639V58.5173C11.6387 59.2166 12.4469 59.741 12.9319 59.0418L16.0032 55.8952C16.8114 55.0212 17.2964 53.6227 17.2964 52.399V32.6456V32.6456ZM21.8226 57.6433L18.7512 60.9647C17.943 61.8387 17.458 63.2372 17.458 64.4608V76.8722C17.458 78.2707 17.943 79.4944 18.7512 80.3684L21.8226 83.6898C22.3075 84.2142 23.1157 83.8646 23.1157 83.1654V58.1677C23.1157 57.4685 22.3075 57.1189 21.8226 57.6433Z" fill="#EEEEEE"/>
<path d="M50.9192 19.7097L41.7052 9.74559C41.2203 9.22116 40.412 9.57078 40.412 10.27V14.9899C40.412 15.8639 40.7353 16.7379 41.3819 17.4372L45.0998 21.4578C53.3439 30.373 57.87 42.26 57.87 54.6714C57.87 66.7332 53.5055 78.4454 45.7464 87.1859V87.3607L32.0063 102.219C31.8447 102.394 31.5214 102.394 31.3597 102.219L6.78922 75.2989C6.14263 74.5996 5.81933 73.7256 5.81933 72.8515V36.6661C5.81933 35.7921 6.14263 34.7432 6.78922 34.2188L27.6418 11.4937C28.1268 10.9692 28.935 11.3189 28.935 12.0181V86.4866C28.935 87.7103 30.2282 88.2347 31.0364 87.3607L51.5658 65.16C51.8891 64.8103 52.0507 64.2859 52.0507 63.9363V58.3424C52.0507 57.818 51.4041 57.4684 51.0808 57.818L34.7543 75.4737V59.5661L45.7464 47.6791C46.0697 47.3295 46.2314 46.805 46.2314 46.4554V40.8615C46.2314 40.3371 45.5848 39.9875 45.2615 40.3371L34.7543 51.6997V35.7921L40.0887 30.0234C40.412 29.6738 40.5737 29.1494 40.5737 28.7997V23.2059C40.5737 22.6814 39.9271 22.3318 39.6038 22.6814L34.916 27.9257V3.10286C34.916 2.57843 34.7544 1.87919 34.2694 1.52958L33.4612 0.655533C32.6529 -0.218511 31.3597 -0.218511 30.5515 0.655533L2.90967 30.1982C1.13154 32.2959 0 35.0929 0 37.8898V71.4531C0 74.4248 1.13154 77.2218 2.90967 79.1447L30.0666 108.513C31.0364 109.561 32.4913 109.561 33.2995 108.513L50.7575 89.6332C58.8399 80.8927 63.3661 69.0058 63.3661 56.7691V53.0982C63.5277 40.5119 59.0016 28.4501 50.9192 19.7097Z" fill="#11BE37"/>
</svg>
