<svg width="21" height="21" viewBox="0 0 21 21" fill="none" xmlns="http://www.w3.org/2000/svg">
<path d="M17.6581 6.5425C17.7612 6.23 17.6581 6 17.1625 6H15.5224C15.1047 6 14.9125 6.1975 14.8095 6.4175C14.8095 6.4175 13.9741 8.245 12.7934 9.43C12.412 9.7725 12.2365 9.8825 12.0277 9.8825C11.9246 9.8825 11.7659 9.7725 11.7659 9.46V6.5425C11.7659 6.1675 11.649 6 11.3037 6H8.72514C8.46339 6 8.30745 6.175 8.30745 6.3375C8.30745 6.6925 8.89779 6.775 8.95905 7.775V9.945C8.95905 10.42 8.86437 10.5075 8.65552 10.5075C8.0986 10.5075 6.74529 8.6725 5.94332 6.5725C5.78182 6.165 5.62309 6 5.20262 6H3.56249C3.09468 6 3 6.1975 3 6.4175C3 6.8075 3.55692 8.745 5.59246 11.305C6.94856 13.0525 8.8588 14 10.5964 14C11.6406 14 11.7687 13.79 11.7687 13.4275C11.7687 11.7575 11.674 11.6 12.1975 11.6C12.4398 11.6 12.8575 11.71 13.8321 12.5525C14.9459 13.5525 15.1297 14 15.7535 14H17.3936C17.8614 14 18.0981 13.79 17.9617 13.375C17.6498 12.5025 15.5418 10.7075 15.4472 10.5875C15.2049 10.3075 15.2745 10.1825 15.4472 9.9325C15.45 9.93 17.4521 7.4 17.6581 6.5425V6.5425Z" fill="#90989C"/>
</svg>
