<svg width="21" height="21" viewBox="0 0 21 21" fill="none" xmlns="http://www.w3.org/2000/svg">
<path d="M18.6657 6.72113C18.4817 6.04365 17.9395 5.5101 17.2511 5.32903C16.0033 5 11 5 11 5C11 5 5.99669 5 4.7489 5.32903C4.06052 5.51013 3.51835 6.04365 3.33434 6.72113C3 7.94909 3 10.5111 3 10.5111C3 10.5111 3 13.0731 3.33434 14.3011C3.51835 14.9786 4.06052 15.4899 4.7489 15.671C5.99669 16 11 16 11 16C11 16 16.0033 16 17.2511 15.671C17.9395 15.4899 18.4817 14.9786 18.6657 14.3011C19 13.0731 19 10.5111 19 10.5111C19 10.5111 19 7.94909 18.6657 6.72113V6.72113ZM9.36362 12.8372V8.18499L13.5454 10.5112L9.36362 12.8372V12.8372Z" fill="#90989C"/>
</svg>
